<svg width="57" height="24" viewBox="0 0 57 24" fill="none" xmlns="http://www.w3.org/2000/svg">
<path d="M10.335 2.99416C9.67206 3.77861 8.6114 4.39733 7.55074 4.30894C7.41816 3.24828 7.93744 2.12133 8.54511 1.42527C9.20802 0.61872 10.3681 0.0441943 11.3073 0C11.4177 1.10486 10.9868 2.18762 10.335 2.99416ZM11.2962 4.51886C9.76045 4.43048 8.44567 5.3917 7.71647 5.3917C6.97621 5.3917 5.86031 4.56306 4.64497 4.58516C3.06502 4.60725 1.59556 5.50219 0.789016 6.92745C-0.868269 9.77798 0.358122 13.9985 1.96016 16.3187C2.74461 17.4678 3.68374 18.7273 4.92118 18.6831C6.09233 18.6389 6.55637 17.9208 7.97059 17.9208C9.39585 17.9208 9.80465 18.6831 11.0421 18.661C12.3237 18.6389 13.1303 17.512 13.9147 16.3629C14.8096 15.0592 15.1743 13.7886 15.1963 13.7223C15.1743 13.7002 12.7215 12.7611 12.6994 9.93266C12.6773 7.56827 14.6329 6.44132 14.7213 6.37502C13.6164 4.73984 11.8928 4.56306 11.2962 4.51886ZM20.1682 1.31478V18.5395H22.842V12.6506H26.5432C29.9241 12.6506 32.2995 10.3304 32.2995 6.97165C32.2995 3.61288 29.9683 1.31478 26.6316 1.31478H20.1682ZM22.842 3.56869H25.9245C28.2447 3.56869 29.5705 4.80613 29.5705 6.9827C29.5705 9.15926 28.2447 10.4078 25.9135 10.4078H22.842V3.56869ZM37.183 18.6721C38.8624 18.6721 40.4202 17.8213 41.1273 16.4734H41.1826V18.5395H43.6575V9.96581C43.6575 7.47988 41.6687 5.87784 38.6083 5.87784C35.7688 5.87784 33.6696 7.50198 33.5922 9.73379H36.0008C36.1997 8.67313 37.183 7.97707 38.5309 7.97707C40.1661 7.97707 41.0831 8.73942 41.0831 10.1426V11.0928L37.7465 11.2916C34.6418 11.4795 32.9624 12.75 32.9624 14.9598C32.9624 17.1916 34.6971 18.6721 37.183 18.6721ZM37.9012 16.6281C36.4759 16.6281 35.5699 15.9431 35.5699 14.8935C35.5699 13.8107 36.4427 13.1809 38.1111 13.0815L41.0831 12.8937V13.866C41.0831 15.479 39.7131 16.6281 37.9012 16.6281ZM46.961 23.2241C49.5684 23.2241 50.7948 22.2297 51.8665 19.2135L56.5622 6.04357H53.8442L50.6954 16.2193H50.6402L47.4913 6.04357H44.696L49.2259 18.5837L48.9829 19.346C48.5741 20.6387 47.9112 21.1359 46.729 21.1359C46.519 21.1359 46.1102 21.1138 45.9445 21.0917V23.1578C46.0992 23.202 46.7621 23.2241 46.961 23.2241Z" fill="black"/>
</svg>
